name ./resultDataOpenSim/trcMotMarkerGrf/sub09/grf-04-05.mot
datacolumns 19
datarows 12
range 1.50000000 1.54400000
endheader

                time	     ground_force_vx	     ground_force_vy	     ground_force_vz	     ground_force_px	     ground_force_py	     ground_force_pz	   l_ground_force_vx	   l_ground_force_vy	   l_ground_force_vz	   l_ground_force_px	   l_ground_force_py	   l_ground_force_pz	     ground_torque_x	     ground_torque_y	     ground_torque_z	   l_ground_torque_x	   l_ground_torque_y	   l_ground_torque_z	
          1.50000000	        -30.04529321	        443.16415270	         -8.79976887	          1.08907577	          0.00000000	          0.10174953	          0.00000000	          0.00000000	          0.00000000	          0.00000000	          0.00000000	          0.00000000	          0.00000000	          2.65556876	          0.00000000	          0.00000000	          0.00000000	          0.00000000	
          1.50400000	        -30.78460964	        439.36750212	         -6.26384066	          1.08995310	          0.00000000	          0.10136394	          0.00000000	          0.00000000	          0.00000000	          0.00000000	          0.00000000	          0.00000000	          0.00000000	          3.06346547	          0.00000000	          0.00000000	          0.00000000	          0.00000000	
          1.50800000	        -31.49648116	        435.88102637	         -5.05277106	          1.09078181	          0.00000000	          0.10106189	          0.00000000	          0.00000000	          0.00000000	          0.00000000	          0.00000000	          0.00000000	          0.00000000	          3.33693088	          0.00000000	          0.00000000	          0.00000000	          0.00000000	
          1.51200000	        -31.51014720	        432.75849578	         -5.24225918	          1.09143458	          0.00000000	          0.10083885	          0.00000000	          0.00000000	          0.00000000	          0.00000000	          0.00000000	          0.00000000	          0.00000000	          3.43490647	          0.00000000	          0.00000000	          0.00000000	          0.00000000	
          1.51600000	        -30.38332110	        430.01517839	         -6.66544397	          1.09184872	          0.00000000	          0.10069921	          0.00000000	          0.00000000	          0.00000000	          0.00000000	          0.00000000	          0.00000000	          0.00000000	          3.35423017	          0.00000000	          0.00000000	          0.00000000	          0.00000000	
          1.52000000	        -28.01261124	        427.63193850	         -8.95295464	          1.09201212	          0.00000000	          0.10064360	          0.00000000	          0.00000000	          0.00000000	          0.00000000	          0.00000000	          0.00000000	          0.00000000	          3.12888682	          0.00000000	          0.00000000	          0.00000000	          0.00000000	
          1.52400000	        -24.64942171	        425.59528774	        -11.61804058	          1.09197831	          0.00000000	          0.10065939	          0.00000000	          0.00000000	          0.00000000	          0.00000000	          0.00000000	          0.00000000	          0.00000000	          2.82049219	          0.00000000	          0.00000000	          0.00000000	          0.00000000	
          1.52800000	        -20.81801226	        423.92103257	        -14.15792639	          1.09183839	          0.00000000	          0.10071468	          0.00000000	          0.00000000	          0.00000000	          0.00000000	          0.00000000	          0.00000000	          0.00000000	          2.50373710	          0.00000000	          0.00000000	          0.00000000	          0.00000000	
          1.53200000	        -17.15263527	        422.64067070	        -16.14042181	          1.09170386	          0.00000000	          0.10076957	          0.00000000	          0.00000000	          0.00000000	          0.00000000	          0.00000000	          0.00000000	          0.00000000	          2.25101997	          0.00000000	          0.00000000	          0.00000000	          0.00000000	
          1.53600000	        -14.20900467	        421.78055652	        -17.26004649	          1.09168340	          0.00000000	          0.10078772	          0.00000000	          0.00000000	          0.00000000	          0.00000000	          0.00000000	          0.00000000	          0.00000000	          2.11933120	          0.00000000	          0.00000000	          0.00000000	          0.00000000	
          1.54000000	        -12.31940014	        421.36342606	        -17.36760440	          1.09183047	          0.00000000	          0.10074720	          0.00000000	          0.00000000	          0.00000000	          0.00000000	          0.00000000	          0.00000000	          0.00000000	          2.14090128	          0.00000000	          0.00000000	          0.00000000	          0.00000000	
          1.54400000	        -11.52662406	        421.41706452	        -16.48159756	          1.09214258	          0.00000000	          0.10063814	          0.00000000	          0.00000000	          0.00000000	          0.00000000	          0.00000000	          0.00000000	          0.00000000	          2.31821732	          0.00000000	          0.00000000	          0.00000000	          0.00000000	
